<?xml version="1.0" encoding="iso-8859-1"?>
<!-- Generator: Adobe Illustrator 19.0.0, SVG Export Plug-In . SVG Version: 6.00 Build 0)  -->
<svg version="1.1" id="Capa_1" xmlns="http://www.w3.org/2000/svg" xmlns:xlink="http://www.w3.org/1999/xlink" x="0px" y="0px"
	 viewBox="0 0 512 512" style="enable-background:new 0 0 512 512;" xml:space="preserve">
<g>
	<g>
		<path d="M278.92,254.3l-36.71,36.71c2.12,4.91,3.29,10.32,3.29,15.99c0,22.33-18.17,40.5-40.5,40.5s-40.5-18.17-40.5-40.5
			c0-22.33,18.17-40.5,40.5-40.5c5.67,0,11.08,1.17,15.99,3.29l36.71-36.71c-14.87-10.64-33.07-16.9-52.7-16.9
			c-50.08,0-90.82,40.74-90.82,90.82s40.74,90.82,90.82,90.82c50.08,0,90.82-40.74,90.82-90.82
			C295.82,287.37,289.56,269.17,278.92,254.3z"/>
	</g>
</g>
<g>
	<g>
		<path d="M360.11,173.11l-59.77,59.77c15.97,20.47,25.48,46.21,25.48,74.12c0,66.62-54.2,120.82-120.82,120.82
			S84.18,373.62,84.18,307S138.38,186.18,205,186.18c27.91,0,53.65,9.51,74.12,25.48l59.77-59.77C302.95,120.81,256.13,102,205,102
			C91.96,102,0,193.96,0,307s91.96,205,205,205s205-91.96,205-205C410,255.87,391.19,209.05,360.11,173.11z"/>
	</g>
</g>
<g>
	<g>
		<path d="M462,49.697V0h-22.213L372.74,67.047v50.993l-33.85,33.85c7.58,6.54,14.68,13.64,21.22,21.22l33.85-33.85h50.993
			L512,72.213V48.697L462,49.697z"/>
	</g>
</g>
<g>
</g>
<g>
</g>
<g>
</g>
<g>
</g>
<g>
</g>
<g>
</g>
<g>
</g>
<g>
</g>
<g>
</g>
<g>
</g>
<g>
</g>
<g>
</g>
<g>
</g>
<g>
</g>
<g>
</g>
</svg>
